<?xml version="1.0" encoding="UTF-8" standalone="no"?>
<svg
   viewBox="0 0 94 13.95"
   width="800"
   height="310"
   fill="currentColor"
   version="1.1"
   id="svg1"
   xmlns="http://www.w3.org/2000/svg"
   xmlns:svg="http://www.w3.org/2000/svg">
  <defs
     id="defs1" />
  <path
     d="m 32.507,1.436 c -1.298,-1.466 -2.904,-2.205 -4.812,-2.205 -1.176,0 -2.26,0.233 -3.255,0.7 A 7.995,7.995 0 0 0 21.859,1.837 9.205,9.205 0 0 0 20.144,4.69 9.773,9.773 0 0 0 19.516,8.236 c 0,1.25 0.194,2.39 0.58,3.419 0.362,0.98 0.918,1.877 1.635,2.636 a 7.543,7.543 0 0 0 2.504,1.718 c 0.965,0.41 2.025,0.617 3.176,0.617 0.522,0 1.005,-0.041 1.445,-0.116 0.439,-0.075 0.858,-0.2 1.26,-0.37 0.4,-0.175 0.79,-0.398 1.18,-0.664 0.385,-0.27 0.792,-0.612 1.21,-1.018 v 4.353 h -0.005 v 0.421 h -5.33 l -4.005,4.64 V 24.67 H 38.203 V -0.31 h -5.697 v 1.746 z m -0.014,7.979 a 4.25,4.25 0 0 1 -0.786,1.215 3.555,3.555 0 0 1 -2.592,1.1 3.627,3.627 0 0 1 -1.464,-0.292 3.508,3.508 0 0 1 -1.166,-0.808 3.93,3.93 0 0 1 -1.054,-2.72 c 0,-0.519 0.097,-1.006 0.298,-1.457 a 3.77,3.77 0 0 1 0.804,-1.181 4.114,4.114 0 0 1 1.162,-0.808 3.484,3.484 0 0 1 2.817,-0.016 c 0.448,0.19 0.844,0.463 1.181,0.81 0.336,0.347 0.6,0.743 0.804,1.194 0.202,0.452 0.298,0.95 0.298,1.493 0,0.505 -0.104,1.005 -0.302,1.47 z M 16.232,1.707 a 6.173,6.173 0 0 0 -2.06,-1.602 4.875,4.875 0 0 0 -0.57,-0.22 6.383,6.383 0 0 0 -0.923,-0.216 H 8.618 L 5.932,2.815 V -0.267 H 0.237 v 16.61 H 5.932 V 5.137 h 5.35 l 0.444,-0.01 v 11.214 h 5.697 V 5.953 c 0,-0.885 -0.084,-1.674 -0.25,-2.366 A 4.655,4.655 0 0 0 16.232,1.71 Z m 38.367,-2.018 h -6.213 l -2.47,2.863 v -2.864 h -5.7 v 16.61 h 5.71 L 45.93,5.181 h 4.144 L 54.6,-0.079 Z M 85.65,7.361 93.44,-0.031 V -0.312 H 85.935 L 79.96,5.679 v -16.254 h -5.696 v 26.87 H 79.96 V 9.529 l 6.262,6.763 h 7.663 V 15.976 L 85.652,7.359 Z M 69.54,1.581 A 9.436,9.436 0 0 0 66.455,-0.261 10.953,10.953 0 0 0 62.6,-0.925 c -1.407,0 -2.705,0.226 -3.884,0.678 a 9.611,9.611 0 0 0 -3.072,1.858 8.488,8.488 0 0 0 -2.016,2.788 8.281,8.281 0 0 0 -0.722,3.449 c 0,1.362 0.24,2.596 0.722,3.707 a 8.52,8.52 0 0 0 2.002,2.862 c 0.85,0.798 1.86,1.415 3.036,1.847 1.177,0.432 2.455,0.647 3.842,0.647 1.406,0 2.707,-0.215 3.919,-0.647 1.204,-0.431 2.24,-1.04 3.098,-1.833 a 8.583,8.583 0 0 0 2.031,-2.816 c 0.493,-1.09 0.742,-2.29 0.742,-3.611 0,-1.316 -0.244,-2.52 -0.722,-3.612 a 8.424,8.424 0 0 0 -2.035,-2.81 z m -3.558,7.864 c -0.2,0.461 -0.463,0.869 -0.786,1.215 a 3.573,3.573 0 0 1 -2.592,1.1 c -0.502,0 -0.981,-0.096 -1.434,-0.291 A 3.44,3.44 0 0 1 60.01,10.66 4.155,4.155 0 0 1 59.222,9.445 3.825,3.825 0 0 1 58.925,7.908 c 0,-0.517 0.098,-1.004 0.297,-1.456 0.201,-0.451 0.46,-0.849 0.787,-1.194 a 3.579,3.579 0 0 1 2.597,-1.1 c 0.502,0 0.98,0.096 1.43,0.29 0.448,0.19 0.839,0.461 1.16,0.81 0.328,0.345 0.586,0.752 0.786,1.214 0.2,0.461 0.297,0.954 0.297,1.471 0,0.538 -0.096,1.04 -0.297,1.502 z"
     id="path1"
     style="fill:#ffffff;fill-opacity:1" />
</svg>
